<?xml version="1.0" standalone="no"?>
<!DOCTYPE svg PUBLIC "-//W3C//DTD SVG 20010904//EN"
 "http://www.w3.org/TR/2001/REC-SVG-20010904/DTD/svg10.dtd">
<svg version="1.0" xmlns="http://www.w3.org/2000/svg"
 width="2000.000000pt" height="1187.000000pt" viewBox="0 0 2000.000000 1187.000000"
 preserveAspectRatio="xMidYMid meet">

<g transform="translate(0.000000,1187.000000) scale(0.100000,-0.100000)"
fill="#000000" stroke="none">
<path d="M0 11691 l0 -180 333 -131 c182 -72 666 -264 1074 -426 441 -176 748
-292 755 -288 69 42 666 430 677 440 15 14 201 564 194 576 -2 3 -61 29 -131
57 -70 28 -171 68 -225 91 l-99 40 -1289 0 -1289 0 0 -179z"/>
<path d="M2770 11854 c19 -9 104 -43 188 -76 90 -35 151 -65 149 -72 -2 -6
-51 -151 -107 -323 l-104 -312 -105 -68 c-58 -37 -224 -145 -369 -239 l-263
-171 -197 77 c-108 43 -419 166 -689 274 -271 108 -496 196 -499 196 -14 0
-353 -224 -348 -231 2 -4 33 -18 69 -31 36 -12 65 -26 65 -29 0 -4 -55 -21
-122 -39 -68 -17 -185 -49 -261 -70 -109 -30 -137 -34 -132 -22 5 14 153 262
161 271 2 2 33 -9 70 -23 l66 -27 38 23 c147 90 317 204 312 210 -4 3 -158 66
-342 138 -184 73 -338 134 -342 137 -5 2 -8 -222 -8 -499 l0 -503 278 -109
c582 -229 907 -359 915 -366 4 -3 -43 1 -105 12 -390 63 -788 35 -1025 -73
l-63 -28 0 -1293 0 -1293 108 -42 c59 -23 192 -75 297 -116 l189 -75 35 19
c68 36 189 19 225 -32 21 -30 21 -88 0 -118 -38 -53 -164 -78 -239 -47 -38 16
-67 63 -63 103 3 25 -3 29 -62 54 -145 59 -477 189 -483 189 -4 0 -7 -476 -7
-1058 l0 -1059 28 -12 c24 -11 371 -149 568 -225 l70 -28 160 103 c87 56 163
106 168 110 5 5 -24 44 -70 91 -43 46 -97 110 -119 143 -140 212 -202 463
-177 708 16 148 42 239 107 372 121 247 292 400 630 565 211 103 448 173 688
205 148 19 446 19 587 1 265 -36 558 -126 743 -230 75 -41 192 -132 192 -148
0 -6 -108 -80 -240 -164 -132 -85 -298 -192 -370 -238 -347 -224 -711 -456
-720 -460 -21 -8 14 -25 185 -91 96 -37 211 -83 255 -101 44 -18 280 -113 525
-209 245 -97 450 -181 455 -187 16 -15 -126 -145 -242 -221 -256 -169 -558
-286 -888 -344 -77 -13 -158 -17 -355 -17 -225 -1 -271 2 -385 23 -248 44
-506 132 -656 222 l-83 49 -46 -28 c-25 -16 -109 -70 -187 -121 -79 -50 -149
-91 -156 -91 -7 0 -132 48 -277 106 -146 59 -293 117 -327 130 l-63 24 1 -713
c0 -663 1 -710 16 -687 36 54 142 147 216 189 211 119 480 166 723 126 309
-50 486 -181 565 -420 7 -22 13 -83 14 -135 0 -97 -14 -166 -47 -232 -23 -48
-23 -55 5 -64 20 -6 442 -171 804 -315 l152 -60 68 46 68 46 33 -38 c67 -77
184 -224 181 -227 -2 -2 -101 5 -219 15 -118 10 -239 19 -268 20 -29 1 -54 5
-56 8 -2 3 25 24 60 46 60 37 77 55 54 55 -8 0 -778 302 -890 349 l-45 19 -46
-43 c-119 -111 -301 -195 -509 -235 -84 -16 -313 -14 -400 5 -134 28 -260 76
-332 126 l-26 19 -61 -37 -61 -38 0 -812 0 -813 49 30 c26 17 52 30 57 29 8 0
164 -187 203 -242 14 -19 13 -20 -45 -14 -32 4 -105 10 -161 13 l-103 7 0
-537 0 -536 938 0 937 1 -230 93 c-126 51 -423 171 -660 265 -236 95 -447 184
-468 198 -43 27 -87 108 -87 158 0 50 20 104 51 139 36 42 238 170 319 202 74
30 145 44 226 44 123 0 70 19 1109 -395 308 -123 760 -302 1005 -399 245 -97
461 -184 480 -194 19 -11 49 -40 65 -65 l30 -46 2026 0 2027 -1 270 172 c149
95 271 175 272 178 0 7 -103 49 -450 186 -135 53 -416 163 -625 246 -209 83
-477 188 -595 235 -118 46 -287 113 -375 148 -172 68 -163 66 -450 85 -82 5
-211 14 -285 20 -146 10 -336 23 -1035 70 -247 17 -510 35 -584 40 l-135 10
-200 -129 c-457 -293 -582 -374 -593 -385 -10 -9 4 -18 62 -40 41 -16 73 -32
70 -36 -2 -4 -19 -10 -37 -13 -18 -4 -132 -33 -253 -66 -121 -33 -221 -58
-223 -56 -6 6 158 275 168 275 5 0 34 -9 65 -21 31 -11 63 -18 72 -14 21 8
793 503 811 520 15 13 -4 43 -480 758 -109 164 -198 300 -198 302 0 2 19 2 43
0 23 -3 195 -12 382 -20 187 -9 509 -24 715 -35 206 -11 520 -27 698 -36 l323
-16 97 62 c53 34 198 126 322 206 124 79 229 144 234 144 6 0 141 -52 300
-116 160 -64 512 -203 781 -309 270 -106 564 -222 655 -258 l165 -66 55 19
c65 23 89 24 142 8 88 -26 115 -113 55 -173 -45 -45 -105 -61 -177 -46 -67 13
-98 42 -108 101 l-7 43 -155 62 c-85 34 -249 99 -365 145 -115 45 -394 156
-620 245 -225 90 -479 190 -564 224 l-154 61 -143 -93 c-79 -50 -211 -135
-294 -188 -83 -53 -153 -99 -157 -102 -3 -3 53 -77 125 -164 304 -369 331
-401 656 -795 l88 -107 322 -127 c176 -70 517 -204 756 -299 239 -95 552 -219
695 -275 143 -57 308 -122 368 -146 l107 -42 79 51 c44 29 112 73 153 98 236
149 418 273 411 279 -4 4 -44 21 -88 38 -101 38 -360 140 -880 346 -225 90
-454 180 -509 202 -75 29 -94 40 -80 46 11 4 172 60 359 124 187 64 462 158
610 209 149 51 399 137 557 190 l287 97 253 -100 c139 -55 316 -125 393 -155
77 -30 349 -138 605 -239 404 -161 674 -267 1184 -468 65 -26 115 -49 110 -52
-5 -3 -31 -13 -59 -21 -55 -17 -334 -111 -950 -322 -220 -75 -494 -168 -610
-207 l-210 -71 -270 108 c-148 58 -348 138 -444 176 l-175 69 -75 -49 c-184
-117 -686 -440 -905 -582 l-238 -154 2096 -3 c1153 -1 3039 -1 4193 0 l2096 3
-196 78 -197 79 22 41 c18 38 93 179 241 457 28 52 60 113 72 134 l22 39 544
139 544 139 595 -238 c509 -204 595 -241 595 -258 0 -13 -8 -21 -21 -23 -11
-2 -280 100 -597 227 l-577 229 -218 -55 c-119 -30 -354 -90 -522 -132 l-305
-77 -95 -179 c-52 -99 -123 -232 -157 -296 l-63 -117 243 -96 242 -96 1778 0
1777 0 0 5935 0 5935 -482 -1 -483 0 179 -71 c188 -75 225 -99 259 -170 40
-86 9 -216 -64 -267 -21 -14 -38 -28 -39 -31 0 -3 138 -60 308 -126 306 -121
307 -122 310 -153 2 -17 1 -31 -2 -31 -4 0 -385 149 -606 237 -36 15 -69 26
-75 26 -5 0 -36 -16 -68 -37 -112 -72 -207 -100 -334 -98 -67 1 -101 7 -180
35 -105 38 -1326 527 -1362 547 -20 10 -36 2 -142 -65 -65 -42 -119 -80 -119
-84 0 -4 30 -18 66 -31 36 -14 67 -27 69 -30 5 -7 -504 -144 -511 -138 -4 5
136 248 156 271 4 5 36 -3 70 -17 35 -14 67 -26 72 -26 4 0 53 29 108 65 54
36 106 68 115 71 8 3 15 10 15 14 0 4 -56 30 -125 59 l-124 51 -3373 0 -3373
0 -77 -47 c-43 -27 -77 -53 -78 -58 0 -6 29 -21 65 -33 63 -23 91 -42 62 -42
-7 0 -127 -31 -266 -68 -138 -38 -250 -66 -249 -62 13 33 165 280 173 280 6 0
37 -12 71 -26 l61 -26 64 41 64 41 -1630 0 -1631 0 -197 -65 c-109 -36 -207
-65 -217 -65 -11 0 -97 29 -190 65 l-170 65 -1692 0 c-1530 -1 -1690 -2 -1658
-16z m2745 -138 c13 -9 29 -34 36 -55 10 -34 9 -44 -7 -72 -32 -54 -77 -74
-169 -75 l-80 -1 -465 -300 c-256 -164 -538 -347 -626 -405 -89 -58 -180 -116
-203 -129 -22 -13 -41 -27 -41 -31 0 -3 36 -20 80 -37 44 -17 132 -52 195 -76
63 -25 143 -56 177 -69 l63 -23 115 32 c63 18 214 61 335 95 121 34 313 88
427 120 l206 59 224 -89 c1375 -547 1964 -782 1969 -788 4 -4 -45 -149 -108
-322 -62 -173 -110 -316 -106 -318 4 -1 154 -61 332 -132 l323 -129 182 118
c116 76 179 124 177 132 -2 8 -6 30 -9 49 -9 84 101 145 214 120 59 -13 92
-42 100 -87 9 -48 -11 -86 -59 -114 -34 -19 -56 -24 -117 -24 l-75 1 -204
-132 -204 -131 -343 138 c-189 77 -353 139 -364 139 -17 0 -215 -43 -1018
-223 l-152 -35 -562 224 -561 223 -144 -91 c-79 -50 -142 -92 -140 -94 1 -1
113 -46 247 -99 135 -52 277 -109 315 -125 39 -16 223 -90 410 -163 333 -131
542 -214 1174 -463 172 -68 317 -124 322 -124 4 0 75 43 158 96 l152 97 402
-158 c573 -224 581 -228 585 -246 2 -10 -24 -33 -75 -66 -83 -54 -347 -221
-502 -318 -108 -67 -68 -71 -315 26 -83 33 -157 59 -166 59 -8 0 -53 -25 -98
-56 -46 -30 -91 -54 -100 -52 -14 3 -19 22 -25 104 l-9 102 -136 52 c-243 93
-245 94 -224 126 4 6 69 51 145 99 76 48 135 91 130 95 -4 4 -66 30 -138 58
-71 28 -319 125 -550 217 -231 92 -577 229 -770 305 -192 76 -493 195 -668
264 -175 69 -322 126 -328 126 -13 0 -269 -163 -269 -172 0 -3 32 -19 70 -34
39 -15 69 -29 67 -31 -3 -3 -436 -122 -501 -137 -28 -7 -29 -7 -14 16 8 13 47
78 87 145 l73 122 50 -20 c28 -11 58 -24 67 -29 13 -6 90 38 325 188 170 109
308 202 307 207 -2 9 -225 100 -784 320 -108 43 -200 82 -203 86 -4 8 121 260
146 294 4 6 41 76 83 156 l76 146 -97 38 c-313 123 -593 232 -707 276 -71 28
-156 61 -188 75 -32 13 -65 24 -73 24 -8 0 -42 -18 -74 -40 -32 -22 -61 -40
-63 -40 -10 0 -168 232 -163 237 5 6 488 -16 494 -21 1 -2 -27 -22 -64 -45
-37 -23 -64 -45 -60 -48 15 -16 451 -181 460 -176 15 9 192 123 546 353 74 49
277 180 450 291 406 263 363 230 352 271 -19 70 26 130 111 147 43 9 133 -4
162 -23z m8471 -107 c181 -72 446 -177 589 -233 143 -56 359 -142 480 -190
l221 -88 70 69 c106 103 282 191 464 230 111 23 353 24 455 0 244 -55 391
-150 473 -304 82 -155 83 -325 4 -486 l-39 -78 36 -15 c35 -15 299 -120 716
-285 115 -45 214 -82 220 -82 6 0 41 19 78 43 37 23 69 41 70 39 2 -2 46 -56
98 -119 52 -63 100 -122 106 -130 10 -14 -22 -13 -259 7 -148 12 -274 23 -279
25 -5 2 20 21 55 43 36 22 65 43 66 46 0 3 -66 31 -147 63 -82 32 -295 117
-475 188 l-326 130 -54 -44 c-99 -80 -279 -162 -429 -193 -249 -53 -553 -9
-741 107 -27 17 -53 26 -60 22 -63 -35 -618 -398 -618 -403 0 -5 113 -53 252
-108 l251 -101 41 19 c75 34 176 20 221 -30 30 -35 26 -93 -9 -130 -39 -40
-84 -54 -162 -49 -54 3 -68 8 -94 33 -23 22 -30 37 -30 67 0 46 33 29 -348
179 -236 93 -262 105 -245 117 10 8 171 113 357 233 186 120 341 221 344 223
2 3 -9 21 -27 41 -112 127 -147 343 -85 515 13 35 22 65 21 66 -1 1 -108 43
-237 94 -267 105 -1053 416 -1239 490 l-123 50 -299 -192 c-164 -105 -299
-195 -299 -198 0 -4 32 -19 71 -35 38 -15 69 -29 67 -30 -6 -6 -522 -144 -526
-141 -3 3 135 235 160 269 12 16 17 16 80 -9 l67 -27 113 72 c62 39 210 134
328 210 118 77 222 140 231 140 9 1 164 -58 345 -130z m-5041 -87 c154 -61
503 -199 775 -307 272 -109 505 -200 517 -202 15 -4 117 56 367 216 191 122
350 221 355 221 4 0 174 -66 377 -146 203 -80 419 -165 479 -189 61 -24 344
-136 630 -250 286 -114 617 -245 735 -292 118 -47 343 -136 500 -198 157 -62
295 -116 308 -120 58 -17 2 -15 -130 6 -184 30 -536 33 -688 6 -391 -68 -629
-247 -686 -516 -29 -137 -15 -246 47 -380 22 -46 38 -85 37 -87 -2 -1 -124 46
-273 105 -148 59 -394 156 -545 216 -151 60 -572 226 -935 371 -363 144 -798
316 -967 383 -169 67 -321 128 -338 135 l-31 13 138 88 c354 226 573 368 571
371 -2 1 -163 65 -358 143 -195 77 -543 214 -773 305 -231 92 -422 166 -427
166 -11 0 -1324 -847 -1327 -857 -2 -4 31 -22 74 -38 42 -16 72 -30 67 -32
-45 -15 -520 -140 -522 -138 -3 2 147 262 163 283 2 2 32 -9 69 -24 l66 -26
130 84 c71 45 272 175 447 287 358 230 741 476 792 508 24 15 41 19 55 13 12
-4 147 -57 301 -118z m10757 -1404 l288 -113 0 -32 0 -33 -47 19 c-27 10 -158
63 -293 116 l-245 97 -315 -82 c-173 -46 -406 -107 -518 -136 l-203 -53 -330
-212 c-181 -116 -329 -215 -329 -219 0 -3 134 -60 298 -125 163 -64 617 -245
1007 -400 391 -155 770 -306 843 -335 127 -50 132 -53 132 -81 0 -16 -2 -29
-4 -29 -3 0 -214 83 -471 185 l-466 186 -57 -36 c-222 -140 -872 -567 -872
-573 0 -4 60 -30 133 -59 72 -29 330 -130 572 -226 242 -96 603 -238 803 -317
357 -141 362 -144 362 -172 0 -15 -2 -28 -4 -28 -2 0 -188 72 -413 161 -224
88 -475 187 -558 219 -82 33 -303 119 -490 193 -187 74 -384 151 -437 172 -54
21 -98 41 -98 44 0 3 219 148 486 321 268 173 487 319 488 324 0 6 -138 65
-309 132 -170 68 -485 192 -698 277 l-388 153 388 250 388 250 370 97 c204 53
435 114 515 136 80 21 154 39 165 40 11 1 149 -49 307 -111z m-10477 -245
c162 -36 304 -113 404 -218 63 -67 122 -161 135 -217 6 -26 4 -27 -65 -43
-257 -58 -523 -29 -719 79 -86 47 -184 151 -225 237 -19 41 -35 87 -37 103 -3
28 0 31 55 47 128 40 307 45 452 12z m4107 15 c50 -15 78 -50 78 -99 l0 -38
178 -70 c97 -38 387 -153 645 -255 257 -102 472 -186 477 -186 23 0 7 -20 -42
-53 -29 -19 -199 -129 -378 -244 -179 -116 -431 -279 -560 -363 -129 -84 -301
-195 -383 -248 -81 -52 -146 -96 -145 -97 2 -2 157 -64 346 -139 l343 -136
239 155 c132 85 244 155 248 155 5 0 137 -52 293 -115 156 -64 369 -150 473
-192 l189 -77 47 17 c89 32 188 16 224 -34 20 -30 21 -88 0 -117 -41 -59 -159
-80 -240 -43 -32 15 -45 28 -53 54 -7 20 -11 43 -9 53 2 12 -19 26 -87 55 -73
31 -731 298 -811 329 -16 7 -38 -3 -100 -43 -43 -29 -142 -92 -219 -141 -77
-49 -142 -91 -144 -93 -2 -1 3 -11 12 -21 9 -10 26 -40 38 -67 44 -99 35 -442
-15 -600 -45 -142 -117 -223 -301 -340 -74 -48 -102 -71 -93 -76 7 -5 45 -21
83 -35 110 -42 218 -93 243 -117 93 -86 109 -252 35 -350 -27 -36 -147 -117
-608 -412 -110 -71 -249 -160 -310 -200 -114 -74 -240 -156 -405 -263 -52 -33
-147 -95 -210 -136 -63 -41 -200 -130 -305 -196 -104 -67 -300 -193 -435 -280
-135 -87 -289 -187 -342 -221 -54 -34 -98 -65 -98 -68 0 -5 278 -120 521 -215
l86 -34 142 92 c77 50 232 150 344 222 111 73 519 335 907 584 388 249 755
485 815 524 61 40 207 134 325 210 118 75 295 189 393 252 l178 115 407 -161
c224 -88 433 -172 465 -185 32 -14 65 -25 74 -25 9 0 44 18 79 40 35 22 66 40
68 40 8 0 216 -253 212 -258 -5 -4 -539 38 -544 43 -1 1 27 21 63 45 36 24 64
44 63 46 -3 3 -192 79 -348 139 -52 20 -191 75 -308 121 -118 46 -218 84 -222
84 -5 0 -91 -53 -192 -118 -101 -65 -298 -192 -438 -282 -140 -90 -300 -192
-355 -228 -123 -80 -449 -290 -820 -529 -154 -99 -368 -237 -475 -306 -469
-302 -813 -522 -821 -525 -9 -4 -140 46 -499 189 l-195 78 -85 -55 c-47 -30
-170 -109 -275 -176 -206 -131 -328 -209 -518 -333 -67 -44 -167 -109 -222
-144 -55 -36 -260 -168 -455 -294 -673 -436 -653 -424 -757 -451 -89 -23 -177
-20 -265 8 -41 14 -183 68 -314 122 -131 53 -259 105 -284 114 -48 19 -141 56
-175 71 -11 4 -56 22 -100 39 -44 18 -96 38 -115 45 -19 8 -64 25 -100 39 -36
13 -164 64 -285 111 -121 48 -338 134 -483 191 l-263 104 -356 -229 -355 -228
-392 157 c-215 86 -582 232 -816 325 -234 92 -625 248 -870 345 l-445 176 -44
-19 c-34 -15 -59 -18 -106 -15 -73 6 -99 21 -121 67 -13 28 -14 41 -5 72 17
56 60 83 143 87 108 7 168 -32 168 -107 l0 -36 118 -47 c64 -26 475 -188 912
-361 437 -173 943 -374 1123 -446 l329 -131 318 208 c175 114 315 210 312 213
-4 3 -45 21 -92 39 -168 66 -205 91 -246 173 -48 93 -39 185 26 275 24 34 165
132 326 228 60 36 60 39 -18 69 -212 82 -298 167 -343 340 -20 77 -38 324 -32
441 3 76 9 100 33 144 33 60 65 86 280 223 684 435 1274 819 1269 827 -3 4
-94 43 -202 85 -109 43 -304 120 -433 171 -331 130 -504 198 -665 261 -77 30
-226 88 -331 129 l-192 76 -66 -42 c-37 -24 -71 -39 -75 -34 -25 28 -162 226
-159 230 2 2 78 -1 169 -6 90 -5 199 -10 242 -11 42 -1 77 -5 77 -10 0 -4 -27
-24 -60 -45 -55 -34 -74 -54 -51 -54 8 0 544 -208 1136 -440 235 -92 554 -216
626 -243 l67 -25 126 81 c69 45 220 142 334 214 114 73 367 236 562 362 195
126 528 341 740 476 212 136 538 345 725 466 662 428 907 581 963 601 70 24
210 34 278 20 50 -11 488 -180 1314 -508 228 -91 422 -163 431 -161 14 4 820
519 1187 759 48 31 131 85 185 119 54 34 96 63 94 65 -3 3 -852 341 -1129 449
-96 38 -97 38 -133 21 -48 -23 -135 -22 -183 1 -41 20 -69 75 -58 116 19 76
133 117 238 85z m3128 -291 c201 -79 382 -150 403 -158 20 -7 37 -15 37 -19
-1 -11 -646 -415 -661 -413 -15 2 -819 320 -826 326 -1 2 61 45 140 95 78 51
221 143 317 207 131 85 181 113 200 110 14 -2 189 -68 390 -148z m-15906 52
c56 -15 86 -49 86 -97 l0 -39 138 -56 c75 -31 281 -113 457 -182 176 -70 449
-178 608 -241 158 -63 290 -114 293 -114 3 0 40 20 82 45 111 66 194 89 317
89 55 -1 120 -6 145 -13 24 -7 296 -113 605 -236 577 -230 955 -380 1510 -599
176 -69 336 -137 356 -151 78 -52 111 -183 69 -270 -28 -59 -35 -65 -155 -145
-195 -129 -271 -155 -434 -148 l-96 4 -692 278 -693 278 -157 -100 c-413 -264
-524 -338 -523 -347 1 -5 32 -22 68 -37 41 -16 61 -28 52 -32 -40 -15 -503
-137 -506 -133 -7 6 157 277 168 277 4 0 36 -11 70 -25 l61 -25 156 100 c388
247 525 337 528 346 1 5 -228 101 -510 214 -466 187 -516 209 -553 246 -90 89
-76 238 28 310 21 15 35 31 31 35 -4 4 -226 94 -493 199 -267 105 -592 235
-723 287 l-237 95 -40 -16 c-50 -20 -140 -21 -186 -1 -64 26 -80 117 -29 165
47 44 126 59 199 39z m16713 -1515 c8 -22 -11 -37 -172 -140 -76 -49 -308
-198 -515 -331 -206 -133 -439 -283 -518 -333 -117 -76 -145 -90 -157 -80 -8
7 -15 18 -15 25 0 8 107 82 238 166 130 83 322 206 427 273 104 66 297 192
430 278 132 86 248 157 258 157 10 1 20 -6 24 -15z m-1072 -349 c0 -14 -74
-67 -299 -213 -164 -106 -306 -192 -315 -190 -9 2 -16 13 -16 25 0 18 55 58
295 212 169 109 304 189 315 188 13 -1 20 -9 20 -22z m932 -81 c3 -9 -2 -23
-13 -34 -18 -17 -797 -525 -844 -550 -18 -10 -25 -9 -37 2 -7 8 -11 21 -8 29
4 8 171 120 372 249 201 129 393 254 427 277 66 45 93 52 103 27z m531 -35
c-2 -15 -87 -76 -303 -217 -604 -396 -730 -476 -750 -476 -13 -1 -21 6 -23 20
-3 22 12 33 508 353 96 62 254 164 350 227 175 114 225 135 218 93z m-333
-603 c0 -15 -48 -50 -178 -134 -147 -95 -180 -112 -192 -102 -8 7 -15 18 -15
25 0 19 340 236 365 233 12 -2 20 -11 20 -22z m1783 10 c47 -13 185 -65 267
-101 38 -16 377 -150 512 -201 101 -38 103 -40 103 -71 l0 -33 -52 21 c-29 12
-118 47 -198 79 -664 263 -636 253 -727 265 -65 8 -179 -10 -253 -39 -74 -30
-284 -168 -306 -200 -24 -37 -29 -106 -11 -142 32 -62 -14 -41 940 -423 604
-243 607 -244 607 -272 0 -16 -2 -29 -5 -29 -3 0 -90 34 -194 76 -165 66 -192
74 -212 63 -12 -6 -68 -41 -123 -77 -86 -55 -98 -66 -81 -73 11 -5 46 -19 78
-32 l58 -24 -262 -71 c-145 -39 -264 -70 -266 -68 -3 3 85 156 143 247 l24 38
68 -28 69 -29 116 75 c64 42 115 79 112 83 -3 4 -233 99 -512 210 -280 112
-522 213 -540 224 -99 64 -120 212 -42 300 31 35 245 177 306 202 104 44 277
57 381 30z m-14974 -401 c24 -33 60 -90 80 -127 l37 -67 142 91 c78 50 177
113 219 140 l77 49 218 -87 217 -86 16 23 c35 56 105 119 156 143 88 42 183
53 277 32 81 -18 125 -46 157 -98 17 -28 21 -29 106 -32 148 -6 211 -37 257
-126 24 -46 28 -64 24 -106 -11 -106 -68 -173 -202 -235 -157 -72 -301 -94
-575 -86 -215 6 -315 20 -325 44 -13 36 41 300 76 365 6 11 9 21 7 22 -9 8
-392 156 -402 156 -6 0 -103 -60 -216 -133 -132 -86 -204 -139 -201 -148 1 -8
14 -57 28 -109 22 -82 26 -117 26 -250 1 -112 -4 -175 -16 -228 -39 -168 -132
-359 -222 -456 l-40 -44 -764 306 c-609 244 -761 308 -747 316 31 20 749 481
1086 699 l335 216 63 -62 c35 -34 83 -89 106 -122z m12966 -1060 c567 -27
1261 -62 1457 -73 l122 -7 456 -553 c297 -359 466 -557 484 -563 14 -5 104
-40 198 -77 l173 -67 0 -32 0 -33 -47 19 c-27 11 -127 51 -225 89 l-176 70
-394 32 c-216 18 -726 60 -1133 94 l-740 62 -100 -64 c-180 -117 -205 -134
-205 -141 0 -3 34 -19 75 -35 42 -16 74 -31 72 -33 -5 -4 -521 -143 -523 -140
-1 1 36 66 83 144 l85 142 52 -21 c28 -11 58 -23 67 -25 10 -3 83 40 177 102
l161 108 -31 46 c-30 44 -273 385 -564 793 -74 103 -134 189 -134 190 0 2 19
2 43 1 23 -2 278 -14 567 -28z m-2587 -974 c47 -18 47 -79 1 -99 -58 -27 -124
-4 -124 42 1 52 61 80 123 57z m789 -242 c221 -89 486 -194 588 -234 436 -172
561 -221 1240 -491 393 -157 732 -292 753 -301 38 -17 46 -27 25 -36 -36 -13
-667 -426 -660 -431 8 -5 404 -163 725 -291 l119 -46 36 17 c50 25 150 24 189
-1 42 -27 52 -46 53 -91 0 -88 -111 -142 -226 -109 -62 18 -97 59 -92 109 3
31 21 24 -663 292 l-216 85 -94 -61 c-52 -34 -156 -102 -231 -150 -76 -49
-138 -93 -138 -98 0 -13 73 -40 145 -53 52 -10 204 -8 425 4 31 2 35 -1 35
-23 0 -22 -6 -26 -50 -33 -27 -5 -133 -9 -235 -10 -200 -2 -259 8 -346 58
l-41 24 -94 -61 -94 -60 -40 15 c-22 8 -220 87 -440 175 -734 292 -990 394
-1048 415 l-59 22 -36 -21 c-67 -38 -277 -175 -280 -183 -1 -5 31 -21 72 -37
41 -15 74 -30 72 -31 -6 -6 -518 -144 -522 -141 -2 3 151 266 162 277 2 2 34
-6 72 -19 l68 -23 157 99 c86 54 155 103 154 107 -1 5 -86 41 -187 81 -579
228 -921 364 -1043 413 l-138 56 110 71 c61 39 143 92 183 117 429 274 642
411 661 425 21 15 21 16 -13 9 -19 -4 -89 -24 -154 -46 -66 -22 -126 -37 -134
-34 -7 3 -12 14 -10 26 2 15 18 27 53 41 73 29 238 74 340 94 87 17 97 22 265
131 96 62 176 113 177 113 1 0 183 -72 405 -161z m-1084 31 c27 -25 28 -41 5
-69 -43 -52 -143 -31 -143 29 0 54 94 81 138 40z m-316 -192 c35 -27 22 -81
-22 -97 -84 -29 -154 47 -87 94 26 18 87 20 109 3z m-321 -208 c27 -15 25 -64
-3 -84 -47 -33 -138 -10 -138 35 0 33 36 59 81 59 22 0 49 -5 60 -10z m-328
-189 c47 -18 47 -79 1 -99 -86 -40 -167 33 -98 87 29 23 59 26 97 12z m-1942
-341 c116 -35 182 -106 195 -207 14 -114 -39 -211 -161 -293 -164 -111 -369
-175 -640 -200 -148 -14 -220 -13 -233 3 -28 33 56 252 148 387 189 276 439
388 691 310z m1191 -515 c34 -15 594 -237 2243 -890 116 -46 331 -131 480
-190 148 -58 271 -107 272 -109 2 -2 -66 -47 -149 -101 -84 -55 -224 -145
-311 -201 -87 -56 -154 -105 -149 -108 9 -5 362 -145 635 -252 l139 -54 70 46
71 46 26 -33 c14 -19 63 -78 108 -133 46 -55 82 -101 80 -102 -4 -4 -537 43
-543 48 -3 3 22 23 55 43 34 21 61 41 61 44 0 4 -62 31 -137 60 -76 30 -185
73 -243 97 -309 126 -389 155 -407 145 -10 -5 -157 -99 -327 -210 -171 -110
-311 -199 -313 -198 -1 2 7 45 17 97 74 356 -62 558 -440 655 -141 37 -406 45
-685 21 -472 -40 -741 -12 -973 100 -191 92 -308 249 -319 426 -7 102 7 167
54 261 52 104 120 164 373 326 124 80 236 153 249 163 28 22 23 21 63 3z
m-2124 -251 c3 -22 -50 -61 -325 -234 -57 -36 -103 -68 -103 -71 0 -4 26 -17
58 -29 103 -41 103 -41 42 -57 -30 -7 -148 -39 -263 -70 -114 -31 -209 -54
-212 -51 -8 8 157 278 170 278 7 0 37 -11 67 -24 l55 -25 199 127 c110 70 217
140 239 155 45 31 69 31 73 1z m8837 -255 c22 -6 182 -67 355 -136 173 -69
339 -134 368 -145 46 -17 52 -23 52 -49 0 -16 -2 -29 -4 -29 -3 0 -184 71
-521 205 -266 106 -298 115 -400 115 -139 1 -204 -23 -390 -145 -118 -77 -145
-109 -145 -174 0 -45 35 -108 70 -126 34 -18 570 -235 1057 -428 l333 -132 0
-31 0 -32 -703 283 c-387 155 -715 290 -730 300 -15 10 -39 38 -53 62 -35 58
-35 146 -2 206 41 76 300 231 433 261 76 17 209 15 280 -5z m-5597 -1040 c93
-25 137 -47 186 -96 92 -91 119 -240 63 -354 -95 -195 -408 -290 -672 -205
-44 15 -89 33 -99 41 -22 17 -11 23 -221 -113 -71 -47 -175 -114 -230 -149
-55 -36 -193 -125 -307 -199 l-208 -134 -242 96 c-134 52 -255 100 -269 105
-23 9 -34 6 -82 -26 -31 -20 -60 -34 -66 -31 -12 8 -151 203 -159 224 -4 12 2
14 29 9 31 -5 400 -23 442 -21 29 1 19 -9 -53 -56 -38 -25 -70 -47 -70 -50 0
-3 104 -45 231 -94 183 -71 235 -87 248 -78 9 6 59 38 111 71 148 93 723 464
750 484 21 15 23 20 12 35 -42 57 -63 122 -64 196 0 67 4 85 31 141 38 77 79
113 186 165 142 70 290 82 453 39z m5342 -471 c1 -107 1 -107 71 20 22 39 45
72 50 72 5 0 9 -42 9 -92 l0 -93 53 92 c28 51 55 93 60 93 4 0 7 -54 7 -120 0
-142 -18 -164 -22 -27 l-3 92 -48 -87 c-26 -48 -52 -90 -57 -93 -6 -4 -10 29
-10 87 -1 107 -1 107 -71 -20 -22 -40 -44 -70 -49 -67 -13 8 -13 235 0 235 6
0 10 -38 10 -92z m480 -29 c0 -77 -4 -118 -10 -114 -6 3 -10 52 -10 111 l0
104 -74 0 c-41 0 -78 5 -81 10 -4 6 27 10 84 10 l91 0 0 -121z m100 71 c19
-27 37 -50 40 -50 3 0 21 23 40 50 32 45 50 61 50 43 0 -3 -18 -29 -39 -58
l-39 -52 40 -52 c22 -28 38 -57 36 -63 -3 -7 -22 11 -43 40 -22 29 -42 52 -45
52 -3 0 -23 -23 -45 -51 -22 -29 -41 -47 -43 -41 -2 6 14 35 36 63 l40 52 -39
52 c-21 29 -39 55 -39 58 0 18 18 2 50 -43z m-160 -62 c27 -30 26 -73 -5 -103
-26 -27 -51 -31 -89 -14 -48 22 -54 102 -9 128 31 18 81 13 103 -11z m-310
-274 l0 -97 63 97 c34 53 65 96 69 96 4 0 9 -44 10 -97 l3 -96 60 96 c33 53
63 97 67 97 5 0 8 -54 8 -120 0 -143 -18 -164 -22 -25 l-3 94 -58 -95 c-32
-52 -62 -92 -68 -89 -5 4 -9 48 -9 98 l0 92 -62 -98 c-35 -53 -66 -97 -70 -97
-5 0 -8 50 -8 110 l0 110 -50 0 c-27 0 -50 5 -50 10 0 6 27 10 60 10 l60 0 0
-96z m600 -25 c0 -77 -4 -118 -10 -114 -6 3 -10 52 -10 111 l0 104 -109 0
c-63 0 -112 4 -116 10 -4 6 38 10 119 10 l126 0 0 -121z m-124 50 c10 -8 14
-34 14 -85 0 -100 -18 -106 -22 -7 l-3 78 -60 3 c-33 2 -54 7 -47 11 20 12
103 13 118 0z m-586 -85 c0 -54 -4 -83 -10 -79 -11 7 -14 148 -3 158 12 13 13
7 13 -79z m480 -30 c0 -34 -4 -53 -10 -49 -5 3 -10 28 -10 56 0 27 5 49 10 49
6 0 10 -25 10 -56z m-230 -224 c0 -73 -4 -120 -10 -120 -6 0 -10 43 -10 110
l0 110 -120 0 c-73 0 -120 4 -120 10 0 6 50 10 130 10 l130 0 0 -120z m230 0
c0 -66 -3 -120 -7 -120 -5 0 -37 43 -73 96 l-65 96 -5 -98 c-6 -127 -18 -110
-19 29 -1 84 1 108 11 105 7 -3 40 -44 73 -92 l60 -87 3 83 c2 82 6 108 17
108 3 0 5 -54 5 -120z m136 85 c4 -8 0 -23 -7 -32 -11 -13 -11 -17 -1 -20 19
-7 3 -23 -23 -23 -35 0 -39 16 -10 38 14 11 25 23 25 26 0 12 -28 6 -33 -6 -2
-7 -8 -10 -12 -6 -12 11 15 38 37 38 10 0 21 -7 24 -15z m120 -10 c8 -30 0
-53 -21 -61 -22 -9 -45 14 -45 46 0 33 7 40 36 40 17 0 25 -7 30 -25z m-736
-111 c0 -54 -4 -83 -10 -79 -11 7 -14 148 -3 158 12 13 13 7 13 -79z m185 41
c30 -30 32 -64 4 -99 -25 -31 -76 -35 -107 -8 -32 27 -33 81 -2 112 28 28 75
26 105 -5z m426 -51 c10 -12 10 -20 2 -34 -9 -13 -9 -20 0 -29 8 -8 3 -11 -21
-11 -37 0 -42 19 -12 38 12 7 18 17 14 23 -4 6 -11 6 -20 -2 -21 -17 -28 -4
-9 15 20 20 29 20 46 0z m122 -5 c5 -9 7 -28 3 -43 -5 -22 -11 -27 -34 -24
-21 2 -28 9 -30 31 -6 50 37 75 61 36z"/>
<path d="M5415 10650 c-71 -21 -309 -89 -527 -150 l-397 -112 -146 -276 c-137
-256 -146 -277 -129 -289 10 -7 21 -13 25 -13 4 0 306 -119 671 -264 1207
-480 1399 -556 1416 -556 22 0 1132 246 1138 253 15 15 215 590 208 597 -5 4
-117 51 -249 103 -132 52 -463 184 -735 292 -1037 412 -1125 447 -1135 450 -5
2 -68 -14 -140 -35z"/>
<path d="M7408 8152 c-153 -97 -278 -180 -278 -183 0 -6 43 -24 205 -86 50
-18 95 -39 102 -46 6 -7 13 -45 15 -84 1 -40 5 -73 9 -73 4 0 36 20 72 45 37
25 69 45 74 45 4 0 91 -32 193 -72 102 -39 190 -71 196 -71 14 0 574 352 574
361 0 8 -832 334 -864 338 -14 2 -117 -58 -298 -174z"/>
<path d="M15855 11344 c-146 -26 -309 -93 -413 -172 -141 -106 -211 -275 -183
-444 47 -285 295 -441 701 -441 136 0 167 3 255 26 148 40 313 125 389 201
181 182 185 472 9 653 -61 62 -119 97 -229 134 -170 58 -358 73 -529 43z"/>
<path d="M10674 11203 c-159 -102 -461 -296 -671 -431 -211 -135 -383 -248
-383 -252 0 -4 152 -67 338 -140 432 -170 1028 -406 1647 -653 270 -107 569
-226 665 -264 96 -38 176 -69 178 -67 2 1 -5 28 -15 60 -23 76 -23 254 0 335
50 181 177 328 362 421 160 81 354 122 625 134 80 4 146 7 147 8 1 1 -116 48
-260 105 -144 57 -536 213 -872 346 -580 231 -733 292 -1185 470 -107 42 -216
85 -241 95 l-46 19 -289 -186z"/>
<path d="M8950 9835 c-8 -2 -48 -9 -87 -15 -40 -6 -75 -15 -78 -20 -2 -4 9
-36 27 -70 60 -122 187 -219 350 -269 81 -24 252 -43 322 -36 139 15 206 28
206 40 0 6 -22 43 -49 81 -45 65 -110 127 -173 167 l-28 17 0 -48 c0 -62 -25
-96 -94 -128 -94 -44 -223 -28 -276 33 -25 28 -30 43 -30 83 0 41 5 55 31 84
17 19 46 41 65 48 19 6 34 15 34 19 0 12 -173 23 -220 14z"/>
<path d="M11182 8875 c-73 -16 -111 -37 -307 -163 -77 -50 -258 -166 -403
-259 -144 -92 -309 -198 -365 -234 -266 -171 -429 -276 -627 -404 -118 -76
-242 -155 -275 -176 -33 -22 -136 -88 -230 -148 -373 -240 -631 -406 -845
-544 -124 -80 -346 -223 -495 -318 -148 -95 -313 -200 -365 -234 -103 -67
-668 -431 -815 -525 -343 -220 -351 -225 -375 -274 -29 -61 -25 -148 10 -198
42 -62 35 -59 500 -240 85 -33 198 -77 250 -98 52 -21 106 -41 120 -45 14 -4
49 -18 79 -32 30 -13 60 -22 68 -19 8 3 12 2 9 -3 -7 -11 181 -84 195 -75 7 4
9 3 6 -2 -5 -9 132 -66 748 -310 563 -222 544 -216 627 -221 105 -7 188 13
280 69 156 96 237 152 231 161 -3 6 -1 7 5 3 13 -8 204 113 196 125 -3 5 -2 9
3 8 19 -3 34 2 28 10 -3 5 0 13 6 17 8 4 9 3 5 -4 -10 -16 0 -15 29 4 14 9 22
21 18 27 -3 6 -1 7 5 3 6 -4 40 11 74 33 55 36 65 47 35 42 -5 -1 -6 3 -2 9 5
8 11 8 20 0 10 -9 26 -3 67 26 29 20 52 41 50 46 -1 5 2 7 7 3 6 -3 53 22 106
56 89 58 115 79 79 65 -8 -3 -13 -2 -10 3 3 5 16 9 28 9 13 0 86 41 163 91 77
50 156 100 175 111 95 54 235 151 235 162 1 7 7 12 14 10 14 -3 81 36 80 46
-3 18 2 26 9 15 5 -8 46 13 135 71 70 45 124 86 120 91 -4 4 -3 5 3 2 6 -4 44
15 85 42 41 26 84 53 97 60 12 7 20 16 17 20 -2 5 3 8 13 7 12 -1 16 5 14 19
-2 15 0 16 6 7 7 -11 27 -2 88 38 43 29 78 57 76 64 -2 6 0 8 3 4 4 -4 21 0
38 8 20 11 26 18 18 24 -9 5 -8 9 4 13 9 4 13 3 10 -3 -9 -15 2 -12 30 6 14 9
22 20 19 25 -3 5 3 6 12 2 13 -5 15 -3 9 7 -5 8 -4 11 3 6 11 -7 109 50 150
87 12 11 22 17 22 13 0 -4 6 -2 13 4 21 18 161 106 180 113 11 4 15 12 11 19
-4 7 -4 10 1 6 12 -11 67 21 59 35 -4 7 -4 9 1 5 10 -9 27 0 155 84 58 38 104
74 102 79 -1 6 2 8 8 4 14 -9 171 95 163 108 -3 6 -1 7 5 3 10 -6 142 69 142
80 0 3 -5 2 -12 -2 -7 -4 -8 -3 -4 5 4 6 11 9 16 6 12 -7 170 94 167 107 -1 6
5 13 13 15 13 4 13 3 0 -6 -8 -6 -11 -11 -7 -11 10 0 339 212 335 215 -2 2
-19 6 -39 9 -50 8 -69 16 -69 30 0 7 -12 18 -26 24 -14 7 -23 8 -19 2 9 -14 4
-13 -57 14 -29 13 -60 31 -68 41 -12 14 -10 19 11 38 13 12 41 31 62 42 20 11
37 22 37 26 0 4 8 10 18 13 21 8 42 21 104 64 26 17 49 32 52 32 4 0 32 17 64
39 73 49 140 92 172 109 13 7 43 27 65 43 22 16 70 49 106 72 74 48 129 92
129 104 0 7 260 183 284 192 6 2 19 12 28 21 20 21 51 7 -372 174 l-315 124
-20 -22 c-11 -12 -33 -29 -50 -37 -16 -7 -50 -27 -75 -44 -74 -48 -85 -53
-113 -48 -15 3 -27 8 -27 12 0 8 55 51 65 51 8 0 139 83 146 92 3 5 14 6 25 2
13 -5 16 -4 9 4 -9 9 -202 87 -805 324 -85 34 -311 123 -502 199 -415 165
-450 173 -586 144z m133 -675 c10 -33 -22 -70 -61 -70 -40 0 -61 31 -50 74 11
43 97 40 111 -4z m140 -20 c-3 -5 -13 -10 -21 -10 -8 0 -14 5 -14 10 0 6 9 10
21 10 11 0 17 -4 14 -10z m503 -216 c26 -18 28 -36 6 -69 -22 -33 -41 -38 -75
-18 -22 13 -29 25 -29 50 0 50 52 70 98 37z m167 -33 c0 -7 -10 -17 -22 -22
-20 -7 -23 -5 -23 17 0 21 4 25 23 22 12 -2 22 -9 22 -17z m-1489 -129 c6 -4
17 -18 24 -31 23 -45 -19 -89 -73 -76 -26 7 -37 23 -43 62 -5 37 58 68 92 45z
m174 -22 c14 -27 -7 -50 -35 -39 -11 4 -16 8 -11 8 5 1 3 8 -4 16 -9 11 -9 15
-1 15 7 0 9 5 6 10 -3 6 3 10 14 10 11 0 25 -9 31 -20z m1630 -10 c0 -10 -4
-21 -8 -24 -18 -11 -60 -14 -73 -5 -8 5 -9 9 -4 9 6 0 23 11 39 25 31 26 46
25 46 -5z m-97 -79 c-16 -15 -35 -30 -43 -34 -30 -15 -203 -126 -240 -155 -14
-11 -40 -23 -57 -26 -21 -5 -33 -14 -33 -24 0 -9 -4 -24 -10 -32 -9 -14 -16
-13 -82 21 -30 15 -38 10 -38 -21 0 -28 -2 -30 -40 -30 -33 0 -40 3 -40 20 0
11 5 20 10 20 22 0 8 28 -19 40 -16 6 -32 18 -35 26 -3 8 -19 14 -39 14 -40 0
-97 18 -97 31 0 5 -13 9 -29 9 -20 0 -30 6 -34 20 -4 17 -14 20 -60 20 -46 0
-55 3 -60 20 -5 18 -14 20 -101 20 l-96 0 0 -40 c0 -33 -3 -40 -20 -40 -13 0
-20 7 -20 19 0 23 -62 38 -84 20 -59 -49 -80 -73 -68 -76 14 -5 17 -43 2 -43
-5 0 -10 9 -10 20 0 17 -7 20 -40 20 -33 0 -40 -3 -40 -20 0 -11 -4 -20 -10
-20 -5 0 -10 -9 -10 -20 0 -13 -7 -20 -20 -20 -13 0 -20 -7 -20 -20 0 -11 -4
-20 -10 -20 -5 0 -10 9 -10 20 0 11 -7 20 -15 20 -8 0 -15 -7 -15 -16 0 -22
-25 -44 -49 -44 -11 0 -26 -7 -35 -15 -16 -17 -53 -19 -75 -6 -11 7 -6 18 28
50 24 23 55 44 69 48 15 3 38 17 52 30 39 36 91 58 100 42 6 -9 16 -5 38 19
17 18 37 32 46 32 9 0 16 7 16 16 0 26 25 42 63 41 21 0 37 -5 37 -9 0 -4 5
-8 11 -8 6 0 9 6 6 13 -4 10 2 13 18 9 18 -3 24 1 27 19 3 23 6 24 116 27 94
2 113 0 118 -13 4 -10 13 -13 26 -9 21 6 88 -24 88 -39 0 -5 12 -6 28 -3 17 3
40 -2 62 -14 23 -13 29 -19 17 -20 -13 0 -17 -6 -15 -22 2 -19 11 -24 53 -30
57 -8 62 -6 40 16 -14 14 -14 16 -1 16 8 0 19 -7 24 -17 5 -9 22 -17 38 -19
16 -2 34 -10 40 -19 6 -8 19 -15 28 -15 9 0 16 -6 16 -14 0 -7 9 -16 20 -19
11 -3 20 -1 20 4 0 5 -8 9 -17 10 -33 2 30 17 75 18 26 1 42 6 42 14 1 14 84
67 106 67 8 0 14 7 14 15 0 8 7 15 15 15 7 0 18 6 22 13 4 7 30 23 56 37 27
13 54 31 60 40 20 27 79 50 99 39 17 -9 17 -12 -9 -38z m231 23 c3 -9 6 -26 6
-39 0 -42 -11 -55 -44 -55 -40 0 -56 16 -56 55 0 17 5 36 12 43 18 18 75 15
82 -4z m-1083 -171 c18 -34 18 -51 -1 -80 -31 -48 -122 -13 -103 40 4 12 8 24
8 27 8 30 21 40 49 40 24 0 35 -6 47 -27z m154 11 c20 -15 20 -16 -4 -12 -14
2 -26 9 -29 16 -5 16 9 15 33 -4z m-317 -16 c2 -10 11 -18 19 -18 8 0 12 -4 9
-9 -4 -5 -1 -11 5 -13 7 -2 5 -9 -5 -17 -14 -12 -16 -12 -11 2 4 8 2 18 -4 22
-7 4 -11 -6 -11 -28 0 -25 -6 -36 -22 -44 -26 -11 -57 -11 -76 1 -7 4 -16 5
-19 2 -4 -3 -1 -6 5 -6 7 0 12 -9 12 -20 0 -11 -7 -20 -15 -20 -8 0 -15 9 -15
20 0 11 -4 20 -10 20 -5 0 -10 9 -10 20 0 11 4 20 9 20 5 0 12 15 15 34 7 38
35 56 85 53 23 -1 35 -7 39 -19z m-192 -24 c-3 -8 -2 -12 4 -9 6 3 11 -3 11
-14 1 -12 2 -27 3 -33 4 -25 -15 -37 -47 -31 -25 5 -29 4 -24 -10 4 -10 2 -17
-3 -17 -11 0 -24 19 -27 40 -1 8 -7 16 -12 18 -6 2 -11 13 -11 25 0 26 31 44
79 46 26 1 32 -2 27 -15z m204 -104 c0 -11 -4 -20 -10 -20 -5 0 -10 9 -10 20
0 11 5 20 10 20 6 0 10 -9 10 -20z m734 -12 c5 -4 2 -10 -8 -14 -11 -4 -23 0
-32 12 -11 14 -17 15 -20 7 -3 -7 -10 -13 -15 -13 -6 0 -5 8 1 20 9 17 14 18
38 8 15 -7 31 -15 36 -20z m-2050 -9 c34 -27 35 -71 1 -93 -28 -18 -65 -21
-65 -5 0 5 -4 7 -10 4 -12 -8 -24 39 -16 68 5 20 34 44 57 46 4 1 18 -8 33
-20z m164 -12 c28 -33 -26 -84 -56 -53 -12 12 -11 18 3 40 19 29 37 33 53 13z
m972 -67 c0 -73 2 -80 20 -80 17 0 20 7 20 40 l0 40 230 0 c192 0 230 -2 230
-14 0 -8 6 -17 13 -20 8 -4 7 -5 -3 -5 -31 2 -39 -2 -45 -21 -5 -16 -15 -20
-56 -20 l-49 0 0 -40 0 -40 -160 0 -160 0 0 -40 0 -40 -60 0 -60 0 0 -80 c0
-73 -2 -80 -20 -80 -13 0 -20 -7 -20 -20 0 -11 -4 -20 -10 -20 -5 0 -10 -10
-10 -22 0 -19 2 -20 10 -8 5 8 10 11 10 5 0 -5 5 -2 11 8 12 21 62 23 78 3 7
-8 11 -30 9 -48 -4 -27 -9 -34 -31 -36 -15 -2 -27 -8 -27 -14 0 -6 -9 -3 -20
7 -18 16 -20 16 -20 2 0 -14 -12 -17 -80 -17 l-80 0 0 40 0 40 -80 0 -80 0 0
-40 c0 -33 -3 -40 -20 -40 -19 0 -20 7 -20 100 l0 100 -80 0 c-73 0 -80 2 -80
20 0 17 7 20 43 22 23 0 50 1 60 0 9 -1 17 4 17 12 0 8 -7 13 -16 12 -10 0
-25 15 -36 35 -24 47 -16 84 20 95 21 5 23 8 10 11 -13 3 -18 14 -18 38 0 26
-5 33 -22 37 -37 6 -58 -2 -58 -23 0 -10 -4 -19 -10 -19 -5 0 -10 9 -10 19 0
11 -6 22 -12 25 -10 5 -10 7 0 12 6 3 12 12 12 20 0 8 13 17 30 20 16 4 27 10
24 15 -3 5 2 9 10 9 9 0 16 5 16 10 0 6 9 10 19 10 11 0 22 6 24 13 4 9 8 9
14 1 4 -7 17 -14 28 -17 19 -5 19 -5 -2 -12 -19 -6 -23 -15 -23 -46 0 -37 2
-39 30 -39 23 0 30 -4 30 -20 0 -11 5 -20 11 -20 8 0 10 -18 5 -59 -4 -38 -3
-62 4 -66 6 -4 10 4 10 19 0 20 5 26 21 26 11 0 18 4 15 8 -3 5 4 16 15 25 10
9 19 24 19 32 0 11 11 15 40 15 33 0 40 3 40 20 0 19 7 20 100 20 l100 0 0 80
0 80 40 0 40 0 0 -80z m768 -26 c44 -31 17 -104 -39 -104 -40 0 -79 20 -79 41
0 31 18 67 37 72 36 9 59 7 81 -9z m156 0 c33 -32 13 -74 -35 -74 -38 0 -50
47 -19 72 27 22 34 22 54 2z m-381 -34 c-4 -15 0 -20 16 -20 15 0 21 6 21 23
1 21 2 20 16 -6 25 -45 15 -61 -40 -68 -43 -5 -49 -3 -58 17 -11 24 6 69 23
59 5 -4 9 -1 9 4 0 6 4 11 9 11 5 0 7 -9 4 -20z m-1345 -107 c-3 -26 -7 -28
-50 -31 -29 -2 -48 1 -48 7 0 6 13 11 28 11 16 0 34 8 42 20 20 28 32 25 28
-7z m1365 20 c-7 -2 -19 -2 -25 0 -7 3 -2 5 12 5 14 0 19 -2 13 -5z m-1198
-58 c-2 -19 1 -35 5 -35 5 0 7 -7 4 -15 -3 -8 -11 -13 -17 -12 -7 1 -11 -3
-10 -9 3 -17 -76 -23 -88 -7 -13 15 -7 49 9 46 7 -2 12 4 12 12 0 9 7 18 15
21 8 4 12 11 9 16 -5 7 5 9 25 6 17 -2 31 -1 31 4 0 4 2 8 4 8 2 0 3 -16 1
-35z m-285 -5 c0 -5 9 -10 20 -10 11 0 20 -4 20 -10 0 -5 -13 -10 -30 -10 -23
0 -30 4 -30 20 0 11 5 20 10 20 6 0 10 -4 10 -10z m2410 -31 c12 -8 10 -9 -7
-4 -22 6 -23 4 -23 -49 0 -31 -4 -56 -10 -56 -5 0 -10 20 -10 44 0 24 -3 51
-6 60 -5 12 0 16 17 16 13 0 31 -5 39 -11z m-2450 -13 c0 -8 -4 -18 -10 -21
-5 -3 -10 3 -10 14 0 12 5 21 10 21 6 0 10 -6 10 -14z m-80 -56 c0 -5 -9 -10
-21 -10 -11 0 -17 5 -14 10 3 6 13 10 21 10 8 0 14 -4 14 -10z m2744 -37 c0
-15 -6 -29 -13 -31 -21 -7 -8 48 14 58 1 0 0 -12 -1 -27z m41 8 c-3 -6 -14
-11 -23 -11 -13 0 -13 2 4 14 21 15 30 14 19 -3z m-3507 -35 c7 -55 -5 -76
-42 -76 -42 0 -66 22 -66 59 0 38 19 52 65 49 36 -3 40 -6 43 -32z m148 22
c15 -23 12 -68 -3 -68 -27 0 -54 40 -42 61 11 21 34 25 45 7z m534 2 c0 -5 -4
-10 -10 -10 -5 0 -10 -9 -10 -19 0 -10 -7 -21 -15 -25 -8 -3 -15 -12 -15 -21
0 -18 -26 -20 -34 -2 -5 10 -7 10 -12 0 -3 -7 -17 -13 -31 -13 -16 0 -27 -7
-30 -20 -3 -13 -14 -20 -29 -20 -15 0 -24 -6 -24 -15 0 -9 -9 -15 -22 -15 -46
0 -70 -12 -65 -31 4 -14 0 -19 -13 -19 -11 0 -22 5 -25 10 -3 6 -2 10 3 10 5
0 12 9 15 20 3 13 14 20 30 20 16 0 34 11 48 30 13 16 32 30 42 30 9 0 17 5
17 11 0 6 8 8 18 5 9 -3 24 -1 32 4 13 8 13 11 1 19 -11 7 -10 10 6 15 11 4
28 15 38 26 19 21 85 28 85 10z m1163 -57 c-3 -8 3 -13 19 -13 34 0 68 -27 68
-54 0 -33 -29 -65 -65 -71 -26 -5 -33 -1 -52 29 -24 37 -30 76 -13 76 5 0 12
11 15 23 4 13 12 24 20 24 7 0 11 -6 8 -14z m1357 -17 c0 -27 -24 -56 -46 -56
-10 0 -14 12 -14 40 0 38 2 40 30 40 25 0 30 -4 30 -24z m200 12 c0 -10 -19
-9 -45 2 -16 7 -14 8 12 7 18 -1 33 -5 33 -9z m-1720 -12 c0 -2 -7 -7 -16 -10
-8 -3 -12 -2 -9 4 6 10 25 14 25 6z m393 -10 c20 -16 21 -34 3 -58 -17 -23
-42 -23 -72 1 l-24 19 22 26 c26 29 44 32 71 12z m1291 5 c10 -16 -19 -19 -39
-5 -18 13 -17 14 7 14 15 0 29 -4 32 -9z m-98 -66 c-11 -8 -25 -15 -30 -15 -6
1 0 7 14 15 32 19 40 18 16 0z m-2686 -82 c0 -12 10 -15 48 -11 l48 5 -4 -56
c-4 -57 -38 -114 -52 -91 -4 6 -11 10 -16 8 -5 -2 -22 7 -37 18 -30 24 -35 58
-12 88 9 12 11 25 5 42 -7 18 -6 22 5 17 8 -3 15 -12 15 -20z m-258 -23 l-4
-40 -59 0 c-62 0 -72 7 -39 28 12 7 20 8 20 2 0 -5 5 -10 10 -10 6 0 10 9 10
20 0 15 7 20 25 20 14 0 25 5 25 10 0 6 3 10 8 10 4 0 6 -18 4 -40z m2832 28
c-3 -4 -11 -5 -19 -1 -21 7 -19 12 4 10 11 0 18 -5 15 -9z m-2331 -8 c7 0 21
-18 31 -40 19 -39 19 -40 1 -60 -10 -12 -25 -18 -32 -16 -7 3 -13 1 -13 -4 0
-16 -47 -11 -65 6 -26 26 -16 95 15 111 14 7 31 11 38 8 8 -3 19 -5 25 -5z
m-344 -54 c16 -19 11 -46 -13 -71 l-20 -20 -24 24 c-21 21 -40 77 -23 66 4 -2
13 0 21 6 22 13 46 11 59 -5z m-279 -16 c0 -5 9 -10 20 -10 11 0 20 -4 20 -10
0 -5 -9 -10 -20 -10 -13 0 -20 -7 -20 -20 0 -16 -7 -20 -30 -20 -23 0 -30 -4
-30 -20 0 -11 -4 -20 -8 -20 -4 0 -14 9 -22 20 -15 21 -50 28 -50 10 0 -5 5
-10 10 -10 6 0 10 -4 10 -10 0 -5 -9 -10 -20 -10 -11 0 -20 -6 -20 -14 0 -8
-11 -17 -25 -20 -17 -4 -25 -13 -25 -27 0 -18 -4 -20 -30 -14 -25 6 -31 3 -41
-19 -7 -14 -16 -26 -21 -26 -5 0 -6 5 -3 10 3 6 -3 10 -14 10 -14 0 -21 6 -21
20 0 16 7 20 34 20 26 0 36 5 41 20 9 27 48 52 69 44 9 -3 16 -1 16 5 0 20 63
71 102 83 21 6 38 15 38 20 0 4 9 8 20 8 11 0 20 -4 20 -10z m2810 -6 c0 -8
-5 -12 -10 -9 -6 4 -8 11 -5 16 9 14 15 11 15 -7z m-71 -55 c-7 -4 -16 -6 -18
-3 -3 3 1 9 9 14 8 6 11 10 7 10 -5 0 -5 6 0 13 5 8 9 7 11 -7 2 -10 -2 -22
-9 -27z m-2573 -4 c9 -8 11 -15 6 -15 -5 0 -15 7 -22 15 -7 8 -9 15 -6 15 4 0
14 -7 22 -15z m-984 -32 c40 -36 9 -103 -47 -103 -28 0 -37 6 -49 28 -17 33
-6 69 26 82 34 13 49 12 70 -7z m178 -43 c0 -10 -9 -22 -20 -25 -21 -7 -59 2
-61 13 0 4 -2 15 -4 25 -2 9 3 17 11 17 8 0 14 4 14 9 0 5 14 3 30 -5 17 -9
30 -23 30 -34z m960 20 l0 -30 160 0 160 0 0 -40 0 -40 70 0 70 0 0 -40 0 -40
-150 0 -150 0 0 -40 0 -40 -40 0 c-22 0 -40 5 -40 10 0 6 -13 10 -30 10 -16 0
-30 -4 -30 -10 0 -5 -9 -10 -20 -10 -17 0 -20 -7 -20 -40 0 -22 5 -40 10 -40
6 0 10 -13 10 -30 0 -28 -2 -30 -40 -30 -22 0 -40 -4 -40 -10 0 -5 -18 -10
-40 -10 l-40 0 0 160 0 160 40 0 40 0 0 70 0 70 40 0 c38 0 40 -2 40 -30z
m2340 6 c0 -2 -7 -6 -15 -10 -8 -3 -15 -1 -15 4 0 6 7 10 15 10 8 0 15 -2 15
-4z m-64 -15 c-4 -5 0 -11 6 -14 7 -2 1 -4 -14 -4 -31 -1 -38 13 -10 20 9 3
18 5 20 6 2 0 1 -3 -2 -8z m-1691 -51 c3 -6 -1 -7 -9 -4 -18 7 -21 14 -7 14 6
0 13 -4 16 -10z m164 -26 c12 -15 21 -34 21 -44 0 -27 -39 -70 -64 -70 -12 0
-33 11 -45 24 -28 30 -23 71 12 98 31 25 52 22 76 -8z m-209 -9 c22 0 25 -4
25 -40 1 -46 -9 -57 -41 -45 -12 5 -25 6 -28 3 -3 -4 -6 7 -7 23 -1 29 -1 29
-9 4 -8 -24 -8 -23 -9 8 -1 35 17 64 34 54 6 -4 21 -7 35 -7z m386 -17 c13
-41 -40 -63 -79 -33 -22 16 -15 52 11 57 31 7 61 -4 68 -24z m-1599 6 c14 -14
14 -16 -3 -29 -11 -8 -27 -15 -36 -15 -10 0 -18 -7 -18 -15 0 -9 -11 -21 -25
-27 -14 -6 -25 -15 -25 -20 0 -4 -4 -8 -10 -8 -5 0 -10 14 -10 30 0 17 4 30
10 30 5 0 21 12 36 27 18 18 29 23 32 15 6 -19 22 -14 22 8 0 24 6 25 27 4z
m2289 -91 c-7 -7 -26 7 -26 19 0 6 6 6 15 -2 9 -7 13 -15 11 -17z m-2452 11
c26 -10 18 -31 -21 -61 -21 -15 -48 -40 -61 -55 -15 -18 -34 -28 -50 -28 -16
0 -32 -8 -40 -20 -12 -20 -85 -60 -111 -60 -18 0 -51 -29 -51 -45 0 -7 -12
-16 -26 -19 -14 -4 -35 -16 -47 -26 -12 -12 -28 -18 -39 -14 -12 3 -18 0 -18
-10 0 -8 -13 -17 -29 -21 -15 -3 -33 -16 -39 -28 l-11 -22 0 23 c-1 15 -7 22
-21 22 -11 0 -20 5 -20 10 0 6 12 10 28 10 18 0 30 7 37 22 6 13 24 26 43 30
17 5 32 13 32 18 0 6 7 10 15 10 8 0 15 6 15 14 0 15 21 26 50 26 10 0 20 10
24 23 5 17 8 19 15 8 8 -12 12 -11 27 3 14 14 14 20 4 26 -16 10 22 23 65 22
21 -1 25 2 15 8 -13 8 -12 10 1 10 9 0 31 14 49 30 18 17 38 30 45 30 7 0 15
4 17 8 2 7 78 62 85 62 1 0 8 -3 17 -6z m396 -36 c0 -12 34 -10 67 4 32 14 84
18 77 6 -3 -4 0 -8 6 -8 6 0 9 -4 6 -9 -4 -5 -1 -22 4 -37 6 -15 7 -30 2 -33
-5 -3 -11 -14 -15 -24 -5 -12 -16 -16 -41 -15 -19 2 -32 6 -30 10 3 4 -5 12
-17 18 -17 10 -23 8 -34 -7 -20 -27 -30 -8 -11 21 14 23 14 26 0 40 -20 20
-19 20 -21 -6 -1 -13 -5 -33 -8 -45 -3 -13 -1 -23 5 -23 5 0 10 -22 10 -50 l0
-50 -60 0 -60 0 0 36 c0 19 -6 42 -14 50 -18 17 -14 103 5 115 14 9 51 13 78
9 9 -1 12 4 8 14 -5 13 -2 13 18 4 14 -6 25 -15 25 -20z m214 -16 c6 -10 -17
-82 -26 -82 -10 0 -10 17 -2 59 6 30 18 40 28 23z m-494 -42 c0 -5 -4 -10 -10
-10 -5 0 -10 5 -10 10 0 6 5 10 10 10 6 0 10 -4 10 -10z m30 -40 c0 -5 -2 -10
-4 -10 -3 0 -8 5 -11 10 -3 6 -1 10 4 10 6 0 11 -4 11 -10z m100 -30 c0 -5 -2
-10 -4 -10 -3 0 -8 5 -11 10 -3 6 -1 10 4 10 6 0 11 -4 11 -10z m-1172 -36
c23 -16 29 -57 13 -82 -11 -18 -75 -20 -95 -3 -19 16 -21 54 -4 81 15 24 55
26 86 4z m174 -22 c8 -28 -16 -55 -41 -47 -21 6 -36 38 -26 55 11 18 62 12 67
-8z m1647 -48 c-28 -15 -37 -10 -20 10 7 8 19 12 28 9 12 -5 11 -9 -8 -19z
m1561 6 c-20 -13 -33 -13 -25 0 3 6 14 10 23 10 15 0 15 -2 2 -10z m-1767 -27
c7 3 11 10 10 16 -2 6 2 11 7 11 6 0 10 -6 10 -14 0 -11 9 -13 35 -9 36 6 49
-9 19 -21 -8 -3 -13 -10 -9 -15 3 -6 12 -8 20 -5 8 3 19 -4 26 -17 10 -20 9
-25 -11 -41 -44 -36 -85 -14 -77 41 5 28 2 32 -34 42 -33 10 -37 14 -26 27 11
13 12 13 15 -2 2 -9 9 -15 15 -13z m304 -22 c20 -25 15 -45 -16 -75 -25 -24
-33 -27 -58 -19 -15 5 -34 22 -42 38 -35 73 66 121 116 56z m143 5 c16 -42 3
-62 -36 -58 -19 2 -37 8 -40 13 -9 16 6 46 29 57 32 16 37 14 47 -12z m-1445
-117 c-4 -5 5 -9 19 -9 13 0 27 6 30 13 3 6 4 3 1 -9 -3 -12 1 -27 10 -34 20
-16 19 -59 -2 -82 -25 -28 -88 -24 -109 6 -21 33 -15 66 19 94 15 13 24 29 20
34 -3 7 -1 8 6 4 6 -4 9 -12 6 -17z m-335 -24 c0 -21 -6 -26 -40 -31 -22 -4
-40 -12 -40 -19 0 -15 -30 -29 -39 -19 -3 4 0 9 7 11 6 3 12 13 12 24 0 12 7
19 19 19 11 0 23 5 26 10 3 6 15 10 26 10 11 0 17 5 14 10 -3 6 -1 10 4 10 6
0 11 -11 11 -25z m559 7 c36 -17 51 -59 25 -69 -6 -2 -14 -12 -17 -22 -3 -14
-14 -18 -43 -17 -30 1 -41 6 -51 26 -14 27 -17 82 -6 93 12 13 58 7 92 -11z
m2236 -11 c3 -6 -5 -15 -17 -22 -20 -11 -21 -10 -11 3 7 8 10 18 6 21 -3 4 -1
7 5 7 6 0 13 -4 17 -9z m-2587 -73 c3 -23 -1 -28 -18 -28 -12 0 -19 4 -16 9 3
5 -1 14 -9 21 -19 16 -9 32 18 28 16 -2 23 -11 25 -30z m-360 10 c19 -19 14
-28 -13 -28 -18 0 -25 -5 -25 -20 0 -11 -4 -20 -10 -20 -5 0 -10 -11 -10 -25
0 -22 -5 -25 -50 -31 -35 -5 -54 -13 -61 -25 -6 -12 -21 -19 -39 -19 -23 0
-31 -5 -36 -25 -4 -18 -23 -33 -66 -54 -33 -17 -68 -37 -79 -47 -11 -10 -19
-12 -19 -6 0 7 5 12 10 12 6 0 9 12 8 28 -3 26 -1 27 39 27 41 0 75 14 37 16
-10 0 -13 3 -6 6 6 2 12 9 12 14 0 18 35 49 55 49 12 0 32 12 46 26 13 15 42
34 64 44 22 10 57 34 78 54 42 40 47 42 65 24z m592 8 c0 -3 -4 -8 -10 -11 -5
-3 -10 -1 -10 4 0 6 5 11 10 11 6 0 10 -2 10 -4z m2185 -66 c-3 -5 -12 -10
-18 -10 -7 0 -6 4 3 10 19 12 23 12 15 0z m-70 -40 c-3 -5 -12 -10 -18 -10 -7
0 -6 4 3 10 19 12 23 12 15 0z m-3480 -23 c24 -20 25 -25 15 -51 -21 -57 -68
-68 -102 -24 -23 30 -22 49 2 76 26 28 52 28 85 -1z m152 -3 c13 -4 20 -10 17
-15 -3 -5 0 -9 6 -9 7 0 5 -6 -4 -15 -8 -8 -26 -15 -40 -15 -37 0 -57 38 -26
52 20 9 21 9 47 2z m1783 -73 c39 -73 -37 -135 -97 -79 -27 25 -29 45 -7 76
20 30 88 31 104 3z m148 0 c28 -24 28 -35 -3 -55 -51 -33 -90 5 -50 48 29 31
27 31 53 7z m-378 -31 c-8 -5 -19 -10 -25 -10 -5 0 -3 5 5 10 8 5 20 10 25 10
6 0 3 -5 -5 -10z m1535 -30 c-3 -5 -12 -10 -18 -10 -7 0 -6 4 3 10 19 12 23
12 15 0z m-2945 -83 c0 -3 -6 -7 -13 -10 -8 -3 -14 4 -15 20 -2 22 0 23 13 9
8 -8 15 -17 15 -19z m-50 -11 c0 -3 -4 -8 -10 -11 -5 -3 -10 -1 -10 4 0 6 5
11 10 11 6 0 10 -2 10 -4z m600 -103 c-7 -34 -17 -53 -26 -53 -8 0 -14 9 -14
20 0 15 -7 20 -25 20 -32 0 -40 19 -28 67 8 35 12 38 41 37 18 -1 32 3 32 10
1 6 8 -2 17 -18 13 -25 14 -37 3 -83z m-175 73 c26 -39 16 -78 -25 -98 -20
-11 -36 -14 -38 -8 -2 6 -12 10 -22 10 -33 0 -42 70 -13 102 24 27 79 24 98
-6z m-435 -6 c0 -5 -16 -10 -35 -10 -19 0 -35 5 -35 10 0 6 16 10 35 10 19 0
35 -4 35 -10z m234 -6 c8 -3 12 -12 9 -20 -3 -8 0 -14 6 -14 6 0 11 -7 11 -16
0 -14 -2 -14 -15 0 -8 8 -15 19 -15 25 0 6 -4 11 -10 11 -5 0 -10 5 -10 10 0
12 3 12 24 4z m804 -230 c48 -33 12 -116 -46 -106 -35 6 -52 28 -52 68 0 51
52 71 98 38z m170 -35 c2 -19 -2 -28 -15 -31 -30 -7 -55 2 -49 19 3 8 6 21 6
29 0 11 8 14 28 12 21 -2 28 -9 30 -29z m-408 6 c0 -8 -4 -15 -10 -15 -5 0 -7
7 -4 15 4 8 8 15 10 15 2 0 4 -7 4 -15z m52 -15 c-6 -15 -11 -19 -16 -12 -4 7
-1 18 6 26 17 19 20 14 10 -14z m-1329 3 c-10 -26 -29 -43 -47 -43 -22 0 -20
16 6 40 27 25 50 27 41 3z m-83 -43 c0 -5 -10 -10 -22 -10 -19 0 -20 2 -8 10
19 13 30 13 30 0z m-49 -48 c-6 -2 -18 -10 -25 -18 -12 -11 -15 -11 -20 1 -3
9 5 20 22 29 19 10 28 11 31 3 2 -6 -1 -13 -8 -15z m-91 -32 c0 -5 -5 -10 -11
-10 -5 0 -7 5 -4 10 3 6 8 10 11 10 2 0 4 -4 4 -10z m-35 -38 c-3 -3 -11 0
-18 7 -9 10 -8 11 6 5 10 -3 15 -9 12 -12z"/>
<path d="M11028 6793 c7 -3 16 -2 19 1 4 3 -2 6 -13 5 -11 0 -14 -3 -6 -6z"/>
<path d="M9423 6197 c-29 -13 -31 -47 -3 -47 11 0 20 6 20 14 0 8 4 16 10 18
5 2 6 8 2 14 -5 8 -14 8 -29 1z"/>
<path d="M7996 5634 c-4 -10 -1 -14 6 -12 15 5 23 28 10 28 -5 0 -13 -7 -16
-16z"/>
<path d="M13856 7886 c4 -10 -10 -24 -46 -43 -42 -23 -109 -67 -165 -110 -6
-4 -26 -17 -45 -27 -19 -11 -39 -24 -45 -28 -5 -5 -30 -21 -55 -37 -25 -16
-106 -68 -180 -116 -74 -48 -166 -108 -205 -133 -129 -83 -180 -117 -185 -122
-10 -10 -69 -50 -75 -50 -3 0 -28 -16 -55 -36 l-51 -36 28 -15 c15 -8 51 -24
78 -34 28 -11 59 -24 70 -29 11 -6 40 -17 64 -25 l44 -15 101 66 c56 36 220
142 366 236 394 252 401 258 424 303 32 61 29 150 -7 203 -28 42 -72 77 -61
48z"/>
<path d="M12970 7025 c0 -7 30 -13 34 -7 3 4 -4 9 -15 9 -10 1 -19 0 -19 -2z"/>
<path d="M11205 5300 c-3 -6 1 -7 9 -4 18 7 21 14 7 14 -6 0 -13 -4 -16 -10z"/>
<path d="M12163 5244 c-3 -8 -12 -13 -19 -10 -8 3 -14 1 -14 -4 0 -15 28 -12
37 4 4 7 15 16 23 19 12 4 11 6 -3 6 -10 1 -20 -6 -24 -15z"/>
<path d="M12030 5170 c0 -5 4 -10 9 -10 6 0 13 5 16 10 3 6 -1 10 -9 10 -9 0
-16 -4 -16 -10z"/>
<path d="M10986 5162 c-3 -5 1 -9 9 -9 8 0 12 4 9 9 -3 4 -7 8 -9 8 -2 0 -6
-4 -9 -8z"/>
<path d="M10879 5089 l-24 -20 28 17 c15 9 27 18 27 20 0 8 -8 4 -31 -17z"/>
<path d="M11920 5089 c0 -5 5 -7 10 -4 6 3 10 8 10 11 0 2 -4 4 -10 4 -5 0
-10 -5 -10 -11z"/>
<path d="M10785 5031 c-3 -5 -2 -12 3 -15 5 -3 9 1 9 9 0 17 -3 19 -12 6z"/>
<path d="M11360 5010 c0 -16 7 -20 30 -20 23 0 30 4 30 20 0 16 -7 20 -30 20
-23 0 -30 -4 -30 -20z"/>
<path d="M10744 5005 c-18 -14 -18 -14 4 -8 12 3 22 9 22 14 0 12 -3 11 -26
-6z"/>
<path d="M11740 4980 c0 -5 6 -10 14 -10 8 0 18 5 21 10 3 6 -3 10 -14 10 -12
0 -21 -4 -21 -10z"/>
<path d="M10691 4971 c-8 -5 -9 -11 -3 -15 5 -3 12 1 16 9 6 17 6 18 -13 6z"/>
<path d="M11718 4954 c-4 -3 -85 -5 -182 -4 -171 1 -176 0 -176 -20 0 -13 -7
-20 -20 -20 -13 0 -20 7 -20 20 0 18 -7 20 -60 20 -53 0 -60 -2 -60 -20 0 -18
7 -20 60 -20 53 0 60 -2 60 -20 0 -18 -7 -20 -60 -20 -53 0 -60 -2 -60 -20 0
-13 -7 -20 -20 -20 -17 0 -20 7 -20 40 l0 40 -100 0 -100 0 0 -40 0 -40 -40 0
c-33 0 -40 -3 -40 -20 0 -18 -7 -20 -80 -20 l-80 0 0 -40 0 -40 -80 0 c-73 0
-80 -2 -80 -20 0 -13 -7 -20 -20 -20 -11 0 -20 7 -20 15 0 8 -4 15 -10 15 -5
0 -10 -7 -10 -15 0 -8 -7 -15 -15 -15 -8 0 -15 -4 -15 -10 0 -6 -32 -10 -75
-10 l-75 0 0 -30 c0 -27 -3 -30 -30 -30 -21 0 -30 -5 -30 -16 0 -29 -25 -44
-59 -34 -26 7 -34 6 -44 -11 -12 -19 -37 -26 -37 -10 0 5 -11 11 -25 13 -14 3
-23 1 -22 -6 1 -6 -4 -10 -12 -8 -7 1 -19 -2 -25 -8 -16 -12 -26 -3 -19 17 5
13 3 13 -15 4 -24 -13 -29 -22 -10 -19 7 2 14 -6 16 -18 2 -12 -3 -21 -10 -21
-7 0 -20 -2 -28 -4 -9 -3 -14 3 -14 14 2 16 -2 15 -35 -5 -61 -37 -111 -75
-105 -80 3 -4 -3 -5 -13 -5 -10 1 -17 -4 -15 -12 2 -8 -3 -11 -11 -8 -16 6
-103 -50 -99 -65 1 -5 -2 -7 -7 -4 -9 6 -148 -81 -571 -356 -137 -89 -260
-123 -422 -116 -148 7 -60 -25 -1199 427 -161 63 -263 99 -275 95 -13 -4 -15
-3 -6 3 9 7 -21 23 -100 54 -62 24 -119 43 -125 43 -7 -1 -13 2 -13 6 0 12
-60 31 -73 23 -6 -4 -7 -1 -2 7 6 10 3 12 -13 8 -12 -4 -20 -3 -17 1 2 5 -73
38 -167 75 -185 74 -170 72 -248 24 -193 -120 -319 -209 -338 -240 -28 -45
-37 -112 -23 -164 18 -66 65 -109 161 -148 47 -18 96 -38 110 -44 14 -6 147
-59 295 -118 149 -58 284 -112 300 -119 17 -7 163 -66 325 -130 162 -65 313
-125 335 -135 22 -10 76 -32 120 -49 44 -18 94 -38 110 -46 17 -8 62 -25 100
-39 39 -14 93 -34 120 -44 28 -11 102 -40 165 -65 63 -24 176 -68 250 -97 151
-59 232 -73 323 -59 92 15 144 41 377 192 118 77 242 157 275 178 33 21 74 47
90 59 17 11 67 44 112 73 93 58 214 136 378 243 192 124 309 199 358 230 27
16 61 39 77 52 15 12 35 22 43 22 8 0 17 4 19 8 2 5 53 41 113 80 61 39 130
85 155 102 25 17 68 45 95 63 28 17 55 35 60 40 6 4 33 22 60 39 28 18 52 35
55 38 5 5 19 14 96 59 28 17 59 40 69 51 10 11 22 20 27 20 5 0 35 17 66 37
31 21 62 40 67 43 6 3 20 14 33 25 12 11 27 20 32 20 5 0 16 9 25 20 9 11 13
14 9 6 -5 -10 -3 -12 5 -7 8 5 9 12 2 20 -7 8 -4 12 10 13 12 1 17 -2 12 -10
-3 -7 2 -5 13 3 10 9 31 22 46 29 26 13 26 15 10 28 -15 13 -14 14 11 8 28 -6
74 11 62 23 -3 4 16 16 42 28 26 12 43 23 37 23 -6 1 -13 -2 -16 -5z m-88 -44
c0 -5 -4 -10 -10 -10 -5 0 -10 5 -10 10 0 6 5 10 10 10 6 0 10 -4 10 -10z
m-590 -50 c0 -27 -3 -30 -30 -30 -27 0 -30 3 -30 30 0 27 3 30 30 30 27 0 30
-3 30 -30z m-200 -120 c0 -5 9 -10 20 -10 11 0 20 -4 20 -10 0 -5 -13 -10 -30
-10 -23 0 -30 4 -30 20 0 11 5 20 10 20 6 0 10 -4 10 -10z m-320 -90 c0 -11
-4 -20 -10 -20 -5 0 -10 9 -10 20 0 11 5 20 10 20 6 0 10 -9 10 -20z m80 0 c0
-13 -7 -20 -20 -20 -13 0 -20 7 -20 20 0 13 7 20 20 20 13 0 20 -7 20 -20z
m577 -36 c-3 -3 -12 -4 -19 -1 -8 3 -5 6 6 6 11 1 17 -2 13 -5z m-1227 -165
c0 -18 -12 -25 -35 -19 -5 1 -15 3 -22 3 -7 0 -10 4 -6 10 3 5 14 6 25 4 13
-4 18 -1 14 8 -2 7 -2 16 1 19 10 10 23 -4 23 -25z m-80 -34 c0 -8 -7 -15 -15
-15 -16 0 -20 12 -8 23 11 12 23 8 23 -8z m-2795 -13 c-3 -3 -11 0 -18 7 -9
10 -8 11 6 5 10 -3 15 -9 12 -12z m2715 -46 c0 -3 -4 -8 -10 -11 -5 -3 -10 -1
-10 4 0 6 5 11 10 11 6 0 10 -2 10 -4z m-145 -76 c-3 -5 -12 -10 -18 -10 -7 0
-6 4 3 10 19 12 23 12 15 0z m-100 -70 c-3 -5 -12 -10 -18 -10 -7 0 -6 4 3 10
19 12 23 12 15 0z"/>
<path d="M10625 4926 c-66 -39 -88 -56 -74 -56 9 0 24 9 34 20 10 11 23 20 29
20 6 0 20 7 30 15 23 18 10 18 -19 1z"/>
<path d="M10490 4840 c-9 -6 -10 -10 -3 -10 6 0 15 5 18 10 8 12 4 12 -15 0z"/>
<path d="M10440 4809 c-23 -19 -23 -19 -2 -9 12 6 27 8 32 5 6 -3 7 1 4 9 -7
19 -4 20 -34 -5z"/>
<path d="M10385 4771 c-3 -5 -2 -12 3 -15 5 -3 9 1 9 9 0 17 -3 19 -12 6z"/>
<path d="M10320 4730 c-15 -13 -18 -20 -9 -20 8 0 20 9 27 20 7 11 11 20 9 20
-2 0 -14 -9 -27 -20z"/>
<path d="M10244 4684 c-21 -15 -23 -54 -3 -54 13 0 11 14 -3 28 -13 13 -3 16
36 12 11 -1 17 3 14 11 -6 19 -20 20 -44 3z"/>
<path d="M10153 4629 c-36 -23 -43 -32 -15 -22 16 7 61 43 51 43 -2 0 -19 -10
-36 -21z"/>
<path d="M10067 4573 c-22 -15 -34 -29 -28 -31 6 -2 21 4 33 12 12 9 18 16 13
16 -5 0 0 7 11 15 34 26 10 16 -29 -12z"/>
<path d="M15910 9589 c-85 -55 -201 -131 -257 -167 -57 -37 -103 -70 -103 -73
0 -9 48 -29 68 -29 20 1 514 322 519 337 2 6 -7 13 -21 17 -13 3 -30 8 -38 11
-7 3 -83 -40 -168 -96z"/>
<path d="M16145 9587 c-33 -23 -147 -98 -252 -167 -106 -69 -193 -128 -193
-132 0 -3 87 -41 194 -83 l194 -78 260 169 c144 93 261 172 262 175 0 7 -380
159 -395 158 -6 0 -37 -19 -70 -42z"/>
<path d="M16643 9421 c-22 -14 -139 -91 -261 -171 -122 -80 -222 -147 -222
-150 0 -7 61 -30 79 -30 14 0 531 330 531 339 0 4 -20 14 -43 23 -43 16 -44
15 -84 -11z"/>
<path d="M2420 8987 c-30 -8 -73 -21 -95 -31 -66 -28 -263 -156 -290 -187 -48
-57 -42 -141 15 -197 16 -16 71 -45 131 -69 57 -22 613 -244 1234 -494 l1130
-454 98 -3 c134 -5 198 16 363 121 147 94 174 125 174 199 0 100 -31 128 -225
206 -168 68 -1113 444 -1450 577 -121 48 -339 134 -485 192 -146 58 -290 114
-320 125 -70 25 -208 32 -280 15z"/>
<path d="M3399 6424 c-757 -486 -742 -476 -727 -485 7 -4 175 -71 373 -150
198 -78 503 -200 677 -270 l317 -127 30 33 c41 47 105 157 136 234 125 308 87
676 -98 951 -37 54 -136 170 -146 170 -4 0 -257 -160 -562 -356z"/>
<path d="M5383 6725 c-64 -20 -128 -60 -162 -104 -63 -79 -126 -249 -145 -392
-7 -46 -7 -47 26 -53 71 -14 424 -19 509 -7 226 30 375 100 427 201 41 80 17
151 -69 200 -39 22 -56 25 -154 26 l-109 2 -17 38 c-22 52 -43 69 -108 88 -65
19 -140 20 -198 1z"/>
<path d="M16612 5572 c2 -4 153 -217 336 -473 l332 -465 268 -22 c147 -12 537
-45 867 -72 330 -27 625 -52 655 -55 199 -19 414 -35 417 -31 4 4 -77 107
-213 267 -39 46 -195 236 -348 422 -153 185 -283 337 -289 337 -27 0 -796 40
-1275 65 -681 36 -755 39 -750 27z"/>
<path d="M14797 4426 c-136 -88 -136 -86 -38 -86 179 0 347 -66 450 -176 83
-88 146 -218 169 -344 13 -70 23 -101 40 -118 29 -29 28 -56 -4 -81 -23 -18
-28 -32 -36 -108 -12 -108 -6 -208 15 -249 27 -52 76 -92 129 -104 57 -14 109
-9 293 28 176 36 389 37 479 4 85 -31 139 -66 180 -114 45 -52 68 -113 96
-253 21 -106 62 -215 80 -215 5 0 213 130 462 289 249 160 506 323 570 363 65
40 117 75 118 78 0 6 -472 194 -2065 825 -631 249 -825 325 -833 324 -4 0 -51
-29 -105 -63z m1558 -631 c398 -155 425 -167 425 -186 0 -21 -21 -36 -278
-197 l-192 -121 -93 35 c-170 66 -521 204 -609 241 -75 30 -88 39 -88 59 0 19
7 24 38 30 214 37 207 34 375 142 l158 101 52 -21 c29 -11 124 -48 212 -83z"/>
<path d="M16035 3796 c-197 -131 -241 -155 -307 -167 -38 -7 -68 -15 -68 -18
1 -11 639 -254 653 -248 25 9 367 229 367 236 0 8 -565 231 -583 230 -6 0 -34
-15 -62 -33z m125 -42 c26 -11 40 -22 40 -34 0 -28 -18 -34 -62 -19 -42 13
-54 29 -44 54 7 19 16 19 66 -1z m-15 -98 c127 -52 153 -72 127 -98 -12 -12
-282 91 -289 110 -7 17 4 42 19 42 7 -1 72 -25 143 -54z m250 6 c99 -39 121
-52 123 -70 5 -34 -35 -28 -163 22 -108 43 -122 53 -111 81 8 22 19 19 151
-33z m-405 -55 c74 -32 99 -60 65 -73 -20 -8 -165 44 -172 62 -7 19 4 44 19
43 7 0 47 -15 88 -32z m414 -52 c24 -10 36 -22 36 -35 0 -28 -15 -32 -61 -19
-43 13 -55 28 -45 54 7 19 24 19 70 0z m-179 -41 c72 -29 78 -34 69 -59 -9
-22 -48 -16 -126 18 -44 20 -58 31 -58 46 0 29 34 27 115 -5z"/>
<path d="M14625 4281 c-62 -6 -77 -14 -311 -164 -44 -29 -136 -88 -205 -131
-68 -44 -167 -107 -219 -141 -52 -34 -148 -95 -212 -136 -65 -41 -116 -78
-114 -84 2 -8 399 -168 1391 -560 220 -86 643 -254 940 -373 297 -118 544
-215 550 -215 5 0 42 21 82 46 l72 47 -30 58 c-19 36 -38 102 -54 182 -40 200
-87 268 -222 321 -46 18 -83 23 -183 27 -109 3 -145 0 -275 -26 -203 -40 -255
-46 -320 -32 -109 23 -188 115 -200 235 -4 33 -2 105 3 160 10 99 10 100 -14
118 -32 24 -31 60 2 86 25 20 26 25 21 81 -9 81 -39 167 -90 251 -95 161 -241
237 -477 252 -41 3 -102 2 -135 -2z"/>
<path d="M11095 3463 c-184 -27 -380 -194 -495 -423 -32 -63 -70 -163 -70
-183 0 -26 329 14 490 59 198 56 394 186 419 279 23 83 2 159 -55 204 -57 45
-201 77 -289 64z m142 -112 c49 -23 63 -45 63 -101 0 -34 -6 -48 -30 -70 -27
-25 -95 -50 -137 -50 -39 0 -97 23 -119 47 -32 35 -33 102 -1 137 46 53 150
70 224 37z"/>
<path d="M12225 2772 c-263 -174 -316 -221 -369 -332 -29 -60 -31 -73 -31
-170 0 -98 2 -110 32 -173 38 -80 119 -165 206 -216 75 -44 227 -96 347 -117
122 -22 402 -22 670 0 320 26 500 20 679 -25 268 -66 406 -174 473 -367 19
-56 23 -87 22 -189 l0 -123 28 18 c50 30 690 442 895 576 l198 129 -320 127
c-176 70 -448 178 -605 240 -381 150 -1022 405 -1530 607 -228 91 -424 168
-435 170 -13 2 -102 -51 -260 -155z"/>
<path d="M13313 1394 c-82 -18 -189 -73 -239 -123 -108 -108 -89 -299 39 -387
135 -93 384 -97 559 -8 223 113 222 388 -2 487 -108 48 -232 59 -357 31z"/>
<path d="M19285 935 c-28 -27 -27 -59 3 -82 51 -41 120 28 80 79 -24 30 -56
31 -83 3z"/>
<path d="M19652 418 c2 -13 8 -23 13 -23 6 0 11 10 13 23 2 15 -2 22 -13 22
-11 0 -15 -7 -13 -22z"/>
<path d="M19050 355 c-20 -24 -15 -67 10 -87 55 -44 124 38 72 85 -23 21 -66
22 -82 2z"/>
<path d="M19656 303 c-12 -12 -6 -43 9 -43 8 0 15 9 15 19 0 21 -13 34 -24 24z"/>
<path d="M6383 11830 l97 -39 113 39 112 38 -210 1 -210 0 98 -39z"/>
<path d="M17171 11866 c2 -2 365 -148 806 -325 869 -347 874 -349 1008 -330
84 12 157 44 291 131 107 69 136 99 154 153 24 74 -30 167 -117 200 -27 10
-135 53 -241 97 l-193 78 -856 0 c-471 0 -854 -2 -852 -4z"/>
<path d="M0 10165 c0 -118 2 -215 5 -215 3 0 33 11 67 25 156 61 292 85 528
94 l175 6 -382 153 c-211 83 -385 152 -388 152 -3 0 -5 -97 -5 -215z"/>
<path d="M2230 7103 c-377 -26 -715 -131 -1035 -321 -85 -51 -140 -93 -219
-170 -493 -481 -348 -1331 278 -1626 193 -91 428 -156 671 -186 117 -15 384
-14 505 0 391 47 797 208 1067 422 41 33 73 64 71 69 -3 10 -372 159 -1093
444 -192 76 -354 141 -358 145 -4 3 198 139 450 300 252 162 514 331 583 375
69 45 172 112 230 149 l104 68 -27 24 c-66 57 -225 135 -392 192 -252 87 -583
133 -835 115z"/>
<path d="M609 3910 c-155 -26 -339 -103 -442 -185 -32 -25 -76 -74 -98 -108
-58 -89 -72 -147 -67 -281 3 -99 7 -118 34 -176 68 -145 194 -234 399 -285
206 -51 413 -41 609 29 207 74 326 166 392 302 32 67 38 89 42 169 5 105 -11
177 -59 262 -35 61 -107 135 -165 169 -64 38 -195 82 -291 99 -89 16 -275 18
-354 5z"/>
<path d="M0 3022 c0 -40 3 -72 6 -72 4 0 22 9 40 21 l33 20 -36 47 c-19 26
-37 49 -39 51 -2 2 -4 -28 -4 -67z"/>
<path d="M3160 2415 c0 -4 145 -225 321 -491 l322 -484 51 0 c28 -1 74 -3 101
-5 28 -3 151 -12 275 -20 124 -8 257 -17 295 -20 39 -3 142 -10 230 -15 230
-15 590 -39 660 -45 56 -4 155 -11 490 -34 72 -5 132 -8 134 -6 1 2 -30 43
-70 92 -40 48 -103 124 -139 168 -36 44 -120 145 -186 225 -66 80 -193 234
-283 342 -157 191 -163 197 -204 202 -23 3 -247 15 -497 26 -250 11 -486 22
-525 25 -38 2 -133 7 -210 10 -77 3 -207 10 -290 15 -266 16 -475 23 -475 15z"/>
<path d="M9045 1930 c-126 -43 -484 -164 -795 -270 -311 -106 -580 -197 -597
-203 -18 -6 -33 -13 -33 -16 0 -3 58 -28 128 -55 70 -27 255 -100 412 -161
157 -62 346 -137 420 -166 116 -45 1178 -464 1358 -536 54 -21 67 -23 95 -13
32 11 799 273 1342 456 154 53 281 97 283 98 3 4 -322 134 -798 321 -135 53
-324 127 -420 165 -96 38 -274 108 -395 155 -121 48 -305 121 -410 162 -104
41 -206 81 -225 88 -19 7 -57 22 -85 33 l-50 19 -230 -77z"/>
<path d="M883 1025 c-68 -19 -128 -50 -253 -130 -59 -39 -109 -79 -120 -98
-39 -63 -17 -159 44 -196 17 -11 358 -151 756 -311 l724 -290 810 2 809 3 -30
30 c-19 19 -74 47 -149 77 -65 26 -193 77 -284 114 -149 59 -707 280 -1642
650 -186 73 -361 140 -390 149 -64 19 -204 19 -275 0z"/>
</g>
</svg>
