 <svg  version="1.0" xmlns="http://www.w3.org/2000/svg"  width="144.000000pt" height="144.000000pt" viewBox="0 0 144.000000 144.000000"  preserveAspectRatio="xMidYMid meet">  <g transform="translate(0.000000,144.000000) scale(0.100000,-0.100000)" fill="#910303" stroke="none"> <path d="M963 1173 c-46 -47 -83 -94 -83 -103 0 -27 164 -190 190 -190 33 0 190 157 190 190 0 36 -155 190 -190 190 -18 -1 -48 -25 -107 -87z m156 -85 c14 -24 14 -28 -3 -47 -28 -31 -83 -29 -98 4 -8 19 -8 31 0 51 10 21 18 25 49 22 28 -2 41 -10 52 -30z"/> <path d="M274 1231 c-141 -78 -137 -258 8 -324 112 -52 248 38 248 163 0 127 -150 221 -256 161z m120 -112 c34 -26 33 -58 -2 -92 -35 -34 -65 -34 -91 -1 -27 34 -27 62 1 91 27 29 57 29 92 2z"/> <path d="M744 1115 c-5 -11 -24 -15 -80 -15 l-74 0 0 -30 0 -30 69 0 c49 0 72 -4 81 -15 7 -8 21 -15 32 -15 22 0 57 37 57 60 0 42 -72 80 -85 45z"/> <path d="M313 811 c-26 -22 -30 -53 -8 -71 11 -9 15 -32 15 -81 l0 -69 30 0 30 0 0 69 c0 49 4 72 15 81 8 7 15 21 15 32 0 22 -37 57 -60 57 -8 0 -25 -8 -37 -18z"/> <path d="M1040 761 c0 -49 -4 -72 -15 -81 -8 -7 -15 -21 -15 -31 0 -25 35 -59 60 -59 25 0 60 34 60 59 0 10 -7 24 -15 31 -11 9 -15 32 -15 81 l0 69 -30 0 -30 0 0 -69z"/> <path d="M313 498 c-9 -18 -23 -42 -30 -53 -7 -11 -17 -29 -23 -40 -6 -11 -19 -33 -30 -50 -11 -16 -23 -37 -27 -45 -3 -8 -19 -31 -35 -51 -15 -20 -28 -49 -28 -63 l0 -26 210 0 210 0 0 26 c0 14 -13 43 -28 63 -16 20 -32 43 -35 51 -4 8 -16 29 -27 45 -11 17 -24 39 -30 50 -66 129 -96 150 -127 93z m52 -194 c0 -22 -5 -29 -19 -29 -10 0 -24 8 -30 17 -8 14 -6 21 9 32 27 21 40 15 40 -20z"/> <path d="M908 509 c-15 -16 -18 -40 -18 -159 0 -127 2 -142 20 -160 18 -18 33 -20 160 -20 187 0 180 -7 180 180 0 188 7 180 -182 179 -128 -1 -145 -3 -160 -20z m186 -25 c9 -3 16 -12 16 -20 0 -7 10 -19 22 -25 40 -22 58 -51 55 -94 -1 -30 -8 -42 -26 -51 -13 -7 -28 -22 -35 -35 -21 -44 -140 -33 -129 12 4 15 -2 23 -26 32 -27 10 -31 16 -31 49 0 26 4 38 14 38 17 0 66 56 66 75 0 19 45 30 74 19z"/> </g> </svg> 